# xmcd CD database file
#
# Track frame offsets:
#	150
#	14525
#	27248
#	39050
#	49672
#	63339
#	72638
#	86694
#	106862
#	117031
#
# Disc length: 1703 seconds
#
# Revision: 0
# Processed by: cddbd v1.5.2PL0 Copyright (c) Steve Scherf et al.
# Submitted via: CDex 1.86
#
DISCID=7a06a50a
DTITLE=Sean Bad Apple - Sean Bad Apple
DYEAR=2017
DGENRE=Blues
TTITLE0=Sun Is Shining Bright
TTITLE1=American White Trash Beauty Queen
TTITLE2=I'm Goin' Back to the Old Ways
TTITLE3=Take Me To Mississippi
TTITLE4=God, May I Have This Dance
TTITLE5=Keep Dem Wheels Movin'
TTITLE6=Big Fanny (Badonkadonk)
TTITLE7=Too Little, Too Late
TTITLE8=Cold Hearted Summa-ma Bitch
TTITLE9=When Will I Find Peace
EXTD=YEAR: 2017
EXTT0=
EXTT1=
EXTT2=
EXTT3=
EXTT4=
EXTT5=
EXTT6=
EXTT7=
EXTT8=
EXTT9=
PLAYORDER=
